<svg xmlns="http://www.w3.org/2000/svg" width="48" height="48" viewBox="0 0 48 48" fill="none">
  <path d="M23.7774 42.48C13.6678 42.48 5.44336 34.2552 5.44336 24.146C5.44336 14.0368 13.6682 5.81201 23.7774 5.81201C33.8866 5.81201 42.1114 14.0368 42.1114 24.146C42.1114 34.2552 33.887 42.48 23.7774 42.48ZM23.7774 7.25161C14.4622 7.25161 6.88336 14.8304 6.88336 24.1456C6.88336 33.4608 14.4622 41.0396 23.7774 41.0396C33.0926 41.0396 40.6714 33.4608 40.6714 24.1456C40.6714 14.8304 33.0926 7.25161 23.7774 7.25161Z" fill="#FCFC8B"/>
  <path d="M32.575 24.8658H13.8138C13.4158 24.8658 13.0938 24.5437 13.0938 24.1458C13.0938 23.7478 13.4158 23.4258 13.8138 23.4258H32.575C32.9729 23.4258 33.295 23.7478 33.295 24.1458C33.295 24.5437 32.9729 24.8658 32.575 24.8658Z" fill="#FCFC8B"/>
  <path d="M27.2603 30.4799C27.0476 30.4799 26.8375 30.3863 26.6953 30.2068C26.4486 29.8947 26.5014 29.4421 26.8134 29.1954L29.0531 27.4241L32.6507 24.2133L26.7083 19.0797C26.4074 18.8196 26.3743 18.3651 26.634 18.0641C26.8941 17.7632 27.3496 17.7305 27.6496 17.9897L34.2116 23.6589C34.3686 23.7942 34.4593 23.9906 34.4611 24.1984C34.4625 24.4058 34.3752 24.6036 34.2207 24.7412L29.9787 28.5256L27.7068 30.3247C27.5744 30.4292 27.4165 30.4797 27.2605 30.4797L27.2603 30.4799Z" fill="#FCFC8B"/>
</svg>