<svg width="18" height="95" viewBox="0 0 18 95" fill="none" xmlns="http://www.w3.org/2000/svg">
 <path d="M0.212 7.29444C0.212 3.43044 2.012 0.166438 6.068 0.0464375L6.476 3.74244C4.124 3.74244 2.996 5.23044 2.996 7.39044C2.996 9.26244 3.62 10.7024 5.3 10.7024C6.932 10.7024 7.004 8.99844 7.556 6.45444C8.276 3.09444 9.452 0.502438 12.668 0.502438C16.1 0.502438 17.588 3.81444 17.588 7.05444C17.588 10.7024 16.148 13.4624 12.212 13.8704L11.636 10.1984C13.868 10.1024 14.828 8.97444 14.828 7.03044C14.828 5.30244 14.156 4.17444 12.836 4.17444C11.588 4.17444 11.108 5.51844 10.676 7.91844C10.028 11.5664 9.02 14.3984 5.396 14.3984C1.364 14.3984 0.212 10.7984 0.212 7.29444ZM0.212 24.4599C0.212 19.1319 3.308 16.0119 8.9 16.0119C13.988 16.0119 17.588 19.0359 17.588 24.4599C17.588 28.1559 15.764 31.1799 11.948 32.1159L11.252 28.4199C13.364 28.0359 14.732 26.7639 14.732 24.4599C14.732 22.9239 14.396 21.6759 13.388 20.9079C12.38 20.1399 10.82 19.7799 8.9 19.7799C6.98 19.7799 5.708 19.9719 4.676 20.6919C3.596 21.4599 3.068 22.6119 3.068 24.4599C3.068 26.7159 4.388 28.0119 6.308 28.4919L5.324 32.2359C2.012 30.9399 0.212 28.1559 0.212 24.4599ZM0.5 34.2888H17.3V40.8168C17.3 44.4408 16.532 47.5608 12.236 47.5608C10.148 47.5608 8.756 46.4808 8.06 44.8968C7.46 46.5048 6.236 47.1528 4.412 47.1528C2.732 47.1528 1.652 47.3688 0.572 48.1128L0.5 48.0888L0.5 44.2008C1.388 43.6968 2.132 43.5528 4.244 43.5528C6.116 43.5528 6.86 42.5928 6.86 40.6968V37.9128H0.5V34.2888ZM9.692 37.9128L9.692 40.5048C9.692 42.4968 10.004 43.9848 12.092 43.9848C14.228 43.9848 14.468 42.4968 14.468 40.5288L14.468 37.9128H9.692ZM0.212 57.9286C0.212 52.6006 3.308 49.4806 8.9 49.4806C13.988 49.4806 17.588 52.5286 17.588 57.9286C17.588 63.2566 13.964 66.3526 8.9 66.3526C3.764 66.3526 0.212 63.2566 0.212 57.9286ZM8.9 53.2486C7.076 53.2486 5.612 53.6326 4.652 54.3046C3.5 55.1206 3.068 56.4886 3.068 57.9286C3.068 59.4886 3.572 60.7366 4.58 61.4806C5.636 62.2726 7.244 62.5846 8.9 62.5846C10.604 62.5846 12.284 62.2006 13.244 61.4806C14.276 60.7126 14.732 59.4886 14.732 58.0246C14.732 56.4886 14.3 55.2406 13.292 54.4246C12.38 53.6806 10.58 53.2486 8.9 53.2486ZM0.5 68.8357H17.3V72.4357H3.548L3.548 80.6437H0.5L0.5 68.8357ZM0.5 82.5466H17.3L17.3 86.1466H3.548V94.3546H0.5V82.5466Z" fill="#FCFC8B"/>
</svg>